<svg width="590" height="390" viewBox="0 0 590 390" fill="none" xmlns="http://www.w3.org/2000/svg">
<path d="M160 41.7092L163.572 40.471L173.478 69.0425L169.906 70.2808L168.42 65.995C166.951 69.7052 164.47 72.1656 160.978 73.3763C157.525 74.5733 154.087 74.2094 150.664 72.2846C147.266 70.3064 144.887 67.353 143.525 63.4244C142.163 59.4958 142.21 55.723 143.668 52.106C145.151 48.4355 147.619 46.0018 151.072 44.8048C154.564 43.5941 158.035 43.9908 161.486 45.995L160 41.7092ZM160.998 68.435C163.887 67.9222 165.864 66.5703 166.927 64.3792C167.976 62.1484 167.807 59.7397 166.422 57.1529C165.075 54.5524 162.886 52.5331 159.854 51.0951C156.861 49.6433 153.92 49.1738 151.031 49.6866C148.141 50.1994 146.172 51.5712 145.123 53.802C144.06 55.993 144.201 58.3888 145.548 60.9894C146.933 63.5761 149.123 65.5954 152.115 67.0472C155.148 68.4852 158.109 68.9478 160.998 68.435Z" fill="black"/>
<path d="M305.333 42.0822L306.971 42.0659C306.36 44.0041 305.453 45.7352 304.25 47.2592C303.047 48.7412 301.61 49.9315 299.939 50.8301C298.267 51.6868 296.486 52.1244 294.596 52.1432C290.942 52.1794 287.799 50.7405 285.166 47.8265C282.575 44.8701 281.258 41.313 281.217 37.1552C281.176 32.9974 282.421 29.4358 284.954 26.4706C287.528 23.4629 290.642 21.9409 294.296 21.9047C297.11 21.8768 299.66 22.7755 301.946 24.6009C304.232 26.3843 305.852 28.7414 306.805 31.6721L302.143 31.7183C301.718 31.2185 301.294 30.7817 300.87 30.4079C298.41 27.9542 295.665 26.5113 292.637 26.0793C289.608 25.6474 287.2 26.3433 285.412 28.1671C283.624 29.9909 282.976 32.4125 283.468 35.4318C283.96 38.409 285.457 41.1243 287.959 43.5776C290.461 46.0309 293.206 47.4738 296.192 47.9062C299.221 48.3381 301.629 47.6422 303.417 45.8184C304.415 44.8424 305.054 43.597 305.333 42.0822Z" fill="black"/>
<path d="M349.207 24.0337L345.472 23.4559L346.049 19.7203L349.785 20.2981L349.207 24.0337ZM344.836 27.565L348.572 28.1428L343.94 58.0897L340.204 57.512L340.869 53.2161L344.836 27.565Z" fill="black"/>
<path d="M387.078 42.1788L382.252 57.8977C381.82 59.3029 381.946 60.6816 382.629 62.0337C383.365 63.3579 384.456 64.2419 385.901 64.6857L389.695 65.8506L388.494 69.7652C385 68.6928 382.441 66.3692 380.814 62.7944C379.24 59.1918 379.064 55.4031 380.284 51.4282L383.464 41.0694L380.393 40.1264L381.632 36.0913L384.703 37.0343L385.923 33.0594L389.537 34.1688L388.317 38.1437L397.35 40.9172L396.112 44.9523L387.078 42.1788Z" fill="black"/>
<path d="M448.515 59.6352L451.181 60.773L419.09 94.0647L416.83 93.1L425.751 83.7563L425.918 49.9884L430.322 51.8683L429.847 79.1345L448.515 59.6352Z" fill="black"/>
<path d="M83.468 342.572H70.532C70.532 342.366 70.532 342.11 70.532 341.802C70.532 339.646 70.4807 337.9 70.378 336.566C70.378 335.128 70.2753 333.024 70.07 330.252C69.8647 327.377 69.5567 324.964 69.146 323.014C68.7353 320.96 68.068 318.496 67.144 315.622C66.3227 312.747 65.296 310.283 64.064 308.23C62.832 306.176 61.2407 304.072 59.29 301.916C57.3393 299.657 55.132 297.86 52.668 296.526C50.204 295.191 47.2267 294.113 43.736 293.292C40.2453 292.368 36.4467 291.906 32.34 291.906H20.482V335.642V342.418V342.572H9.548V240.008H47.278C57.3393 240.008 65.8607 242.472 72.842 247.4C79.926 252.225 83.468 258.077 83.468 264.956C83.468 267.83 82.7493 270.808 81.312 273.888C79.9773 276.865 78.0267 279.688 75.46 282.358C72.8933 285.027 69.5053 287.234 65.296 288.98C61.1893 290.622 56.672 291.444 51.744 291.444C56.5693 292.47 60.9327 294.575 64.834 297.758C68.7353 300.838 71.8153 304.328 74.074 308.23C76.3327 312.028 78.1807 316.186 79.618 320.704C81.158 325.221 82.1847 329.276 82.698 332.87C83.2113 336.36 83.468 339.594 83.468 342.572ZM40.81 286.362C49.2287 286.362 56.2613 284.616 61.908 281.126C67.6573 277.635 70.532 273.118 70.532 267.574C70.532 261.824 67.606 256.948 61.754 252.944C56.0047 248.94 49.0233 246.938 40.81 246.938H20.482V286.362H40.81ZM152.354 312.542H157.128C155.691 321.166 151.995 328.352 146.04 334.102C140.085 339.748 133.155 342.572 125.25 342.572C116.318 342.572 108.669 338.978 102.304 331.792C96.0415 324.502 92.9101 315.776 92.9101 305.612C92.9101 295.448 96.0415 286.772 102.304 279.586C108.669 272.296 116.318 268.652 125.25 268.652C130.794 268.652 135.876 270.14 140.496 273.118C145.116 275.992 148.915 279.945 151.892 284.976C155.075 290.52 156.666 296.834 156.666 303.918V305.458H99.5321C101.38 311.412 104.665 316.751 109.388 321.474C115.445 327.531 122.17 331.124 129.562 332.254C136.954 333.383 142.857 331.74 147.272 327.326C150.968 323.63 152.662 318.702 152.354 312.542ZM103.536 283.744C99.7375 287.44 97.9921 292.368 98.3001 298.528H148.196C146.348 295.242 144.089 292.265 141.42 289.596C135.363 283.538 128.638 279.945 121.246 278.816C113.854 277.686 107.951 279.329 103.536 283.744ZM221.92 268.806H229.004L188.81 374.45H182.804L193.892 344.882L161.86 268.806H173.564L198.666 330.56L221.92 268.806ZM253.18 323.938C247.636 329.482 244.145 335.693 242.708 342.572H239.474V239.7H248.714V316.7C249.946 315.365 251.178 314.133 252.41 313.004L294.914 268.652H304.154L268.58 305.766C269.709 305.663 270.787 305.612 271.814 305.612C280.746 305.612 288.343 309.256 294.606 316.546C300.971 323.732 304.154 332.408 304.154 342.572H293.99C295.838 338.054 296.505 333.588 295.992 329.174C295.581 324.656 293.938 320.96 291.064 318.086C286.649 313.671 280.746 312.028 273.354 313.158C265.962 314.287 259.237 317.88 253.18 323.938ZM316.778 327.172V268.806H326.172V343.034H326.018C325.813 349.399 324.221 355.251 321.244 360.59C318.369 366.031 314.468 370.292 309.54 373.372C304.715 376.554 299.479 378.146 293.832 378.146V367.674C295.372 367.982 296.809 368.136 298.144 368.136C303.277 368.136 307.692 366.288 311.388 362.592C315.084 358.896 316.932 354.481 316.932 349.348V327.172H316.778ZM326.172 258.642H316.778V249.402H326.172V258.642ZM395.141 268.652H404.381V342.572H395.141V331.484C388.776 338.876 381.076 342.572 372.041 342.572C363.109 342.572 355.46 338.978 349.095 331.792C342.832 324.502 339.701 315.776 339.701 305.612C339.701 295.448 342.832 286.772 349.095 279.586C355.46 272.296 363.109 268.652 372.041 268.652C381.076 268.652 388.776 272.348 395.141 279.74V268.652ZM376.045 331.176C383.129 332.305 388.776 330.765 392.985 326.556C397.194 322.244 398.734 316.546 397.605 309.462C396.578 302.378 393.139 295.961 387.287 290.212C381.538 284.462 375.121 281.023 368.037 279.894C360.953 278.764 355.306 280.356 351.097 284.668C346.888 288.877 345.296 294.524 346.323 301.608C347.452 308.692 350.892 315.108 356.641 320.858C362.493 326.607 368.961 330.046 376.045 331.176ZM476.267 268.652H483.505L455.631 342.572H442.849L414.821 268.652H426.833L451.473 333.64L476.267 268.652ZM503.325 258.334H494.085V249.094H503.325V258.334ZM494.085 268.498H503.325V342.572H494.085V331.946V268.498ZM534.41 323.938C528.866 329.482 525.375 335.693 523.938 342.572H520.704V239.7H529.944V316.7C531.176 315.365 532.408 314.133 533.64 313.004L576.144 268.652H585.384L549.81 305.766C550.939 305.663 552.017 305.612 553.044 305.612C561.976 305.612 569.573 309.256 575.836 316.546C582.201 323.732 585.384 332.408 585.384 342.572H575.22C577.068 338.054 577.735 333.588 577.222 329.174C576.811 324.656 575.169 320.96 572.294 318.086C567.879 313.671 561.976 312.028 554.584 313.158C547.192 314.287 540.467 317.88 534.41 323.938Z" fill="black"/>
</svg>
